PathFileType	4	(X/Y/Z)	C:\Users\Basilio\Documents\Thesis Gigler\squatting_fais\c3dfiles\077\SLS_front_pre4\markers_experimental.trc
DataRate	CameraRate	NumFrames	NumMarkers	Units	OrigDataRate	OrigDataStartFrame	OrigNumFrames
200.000000	200.000000	4	60	mm	200.000000	991	1586
Frame#	Time	FHD			RBHD			C7			T10			CLAV			LSHO			LUUPA			LMUPA			LDUPA			LLEP			LMEP			LRAD			LUL			LRFIN			RSHO			RUPA1			RMUPA			RDUPA			RLEP			RMEP			RRAD			RUL			RUFIN			LASI			RASI			USACR			LSACR			RSACR			LTHI1			LTHI2			LTHI3			LTHI4			LLFC			LMFC			LTIB1			LTIB2			LTIB3			LTIB4			LLMAL			LHEE			LMT1			LMT2			LMT5			RTHI			RTHI2			RTHI3			RTHI4			RLFC			RMFC			RTIB1			RTIB2			RTIB3			RTIB4			RLMAL			RMMAL			RHEE			RMT1			RMT2			RMT5			LBHD			
		X1	Y1	Z1	X2	Y2	Z2	X3	Y3	Z3	X4	Y4	Z4	X5	Y5	Z5	X6	Y6	Z6	X7	Y7	Z7	X8	Y8	Z8	X9	Y9	Z9	X10	Y10	Z10	X11	Y11	Z11	X12	Y12	Z12	X13	Y13	Z13	X14	Y14	Z14	X15	Y15	Z15	X16	Y16	Z16	X17	Y17	Z17	X18	Y18	Z18	X19	Y19	Z19	X20	Y20	Z20	X21	Y21	Z21	X22	Y22	Z22	X23	Y23	Z23	X24	Y24	Z24	X25	Y25	Z25	X26	Y26	Z26	X27	Y27	Z27	X28	Y28	Z28	X29	Y29	Z29	X30	Y30	Z30	X31	Y31	Z31	X32	Y32	Z32	X33	Y33	Z33	X34	Y34	Z34	X35	Y35	Z35	X36	Y36	Z36	X37	Y37	Z37	X38	Y38	Z38	X39	Y39	Z39	X40	Y40	Z40	X41	Y41	Z41	X42	Y42	Z42	X43	Y43	Z43	X44	Y44	Z44	X45	Y45	Z45	X46	Y46	Z46	X47	Y47	Z47	X48	Y48	Z48	X49	Y49	Z49	X50	Y50	Z50	X51	Y51	Z51	X52	Y52	Z52	X53	Y53	Z53	X54	Y54	Z54	X55	Y55	Z55	X56	Y56	Z56	X57	Y57	Z57	X58	Y58	Z58	X59	Y59	Z59	X60	Y60	Z60	

992	4.955	-277.9188842773438	1647.770874023438	-1137.002197265625	-415.4951171875001	1518.342407226563	-1069.422973632813	-441.1389465332032	1397.219482421875	-1142.259643554688	-483.705047607422	1088.3193359375	-1021.309020996094	-278.3027343750001	1341.713745117188	-1125.966186523438	-293.9908447265626	1354.213500976563	-1301.083618164063	-131.7766876220703	1301.007934570313	-1398.981689453125	-102.7911834716797	1332.066284179688	-1372.592651367188	-63.39438629150392	1299.041748046875	-1405.857299804688	1.398407220840454	1309.82275390625	-1401.858154296875	8.507876396179201	1240.027587890625	-1370.873657226563	298.6743469238282	1338.476684570313	-1293.473266601563	300.1789245605469	1351.432739257813	-1372.61474609375	395.8498535156251	1363.993896484375	-1300.228271484375	-288.8086242675782	1413.097045898438	-980.1275024414065	-130.2926330566407	1402.257568359375	-867.2500610351565	-104.5790252685547	1420.650268554688	-904.9114379882815	-60.42087173461915	1401.239013671875	-867.0984497070315	4.665432929992677	1405.13671875	-877.4688110351565	9.447160720825197	1327.990966796875	-893.4893798828127	284.8834228515626	1411.333618164063	-984.6942138671877	298.6152648925782	1438.020874023438	-911.3506469726565	383.7030639648438	1436.297607421875	-993.1035766601565	-311.5717468261719	898.7725219726565	-1148.385009765625	-290.5150146484376	924.3988037109377	-874.066101074219	-492.7494201660157	962.0608520507815	-989.5991210937502	-501.2337646484376	933.395446777344	-1017.451171875	-496.5816040039064	928.8757934570315	-963.1102294921877	-281.8041687011719	703.4212646484376	-1216.71142578125	-214.533920288086	655.3631591796876	-1232.19921875	-173.2480926513672	682.3947753906251	-1234.642700195313	-206.7766265869141	594.9058227539064	-1220.226928710938	-106.6538925170899	480.0194702148439	-1210.876098632813	-68.31387329101564	471.063690185547	-1083.918579101563	-160.121337890625	283.8572692871094	-1100.604736328125	-220.7409057617188	251.1996002197266	-1158.873779296875	-192.6278839111329	239.8979949951172	-1124.759033203125	-235.5126342773438	186.0242462158203	-1074.334716796875	-346.9991455078126	107.2129516601563	-1094.394775390625	-416.4078979492189	90.53927612304689	-1034.6064453125	-203.4488372802735	56.02562713623048	-1051.212158203125	-212.552230834961	37.49180603027344	-1097.590942382813	-313.7949523925782	130.4166717529297	-1015.123352050781	-73.14774322509767	741.1668090820314	-834.6462402343752	-8.965579986572267	762.1713256835939	-843.6585693359377	-0.6753170490264894	794.3357543945315	-853.219177246094	51.31123352050783	710.8039550781251	-868.624206542969	104.2108306884766	676.3054809570314	-879.491882324219	111.2305755615235	695.8448486328126	-1007.454467773438	227.2944793701172	607.6779785156251	-924.9157714843752	230.7847900390626	504.5843200683595	-900.640563964844	262.1717834472657	527.8234252929689	-925.9495849609377	284.3731994628907	500.675262451172	-973.637145996094	349.3628845214844	314.3617858886719	-959.093200683594	347.3763122558594	345.0706176757813	-1045.319213867188	321.5484619140626	243.6102600097657	-1017.534973144531	490.3784179687501	398.1011657714845	-1025.134887695313	493.6573486328126	393.1445922851564	-987.4542236328127	503.286590576172	358.3680725097657	-944.5066528320315	-405.0535583496095	1529.414306640625	-1215.182373046875	
993	4.96	-277.5386352539063	1648.696533203125	-1136.690063476563	-415.2599182128907	1520.289916992188	-1069.185913085938	-441.0748291015626	1398.233154296875	-1142.014282226563	-483.6493530273439	1089.2138671875	-1021.415832519531	-278.7068786621094	1342.81201171875	-1125.737426757813	-293.4982299804688	1355.241333007813	-1300.922241210938	-131.7007904052735	1301.636474609375	-1398.634521484375	-102.68359375	1332.978881835938	-1372.647827148438	-63.18973922729494	1299.727783203125	-1405.741455078125	1.411300420761109	1311.018310546875	-1401.861206054688	8.3225154876709	1240.761596679688	-1370.82470703125	298.6667175292969	1339.265380859375	-1293.43115234375	299.9611816406251	1352.340576171875	-1372.663696289063	395.8235778808595	1364.989501953125	-1300.249267578125	-288.8247680664063	1413.935546875	-979.9104003906252	-130.2190246582032	1402.979248046875	-867.1447753906252	-104.6853637695313	1421.266723632813	-904.7675781250002	-60.23694610595705	1402.329833984375	-866.9839477539065	4.670045375823975	1405.888793945313	-877.621276855469	9.567893028259279	1329.005004882813	-893.4771728515627	284.7411804199219	1412.08642578125	-984.544128417969	298.7366333007813	1439.043334960938	-911.2293090820315	383.6430969238282	1437.626342773438	-993.0879516601565	-311.3950195312501	899.9022216796877	-1148.536010742188	-290.4933471679688	925.3917236328127	-874.2249145507815	-492.6390686035157	963.0306396484377	-989.811706542969	-501.0791320800782	934.1606445312502	-1017.620727539063	-496.6300659179689	929.537048339844	-963.274108886719	-281.6705932617188	704.0488891601564	-1216.763427734375	-214.7590484619141	656.3261108398439	-1231.874389648438	-173.1798706054688	682.6480712890626	-1234.38427734375	-207.1866455078126	595.6002197265626	-1220.002807617188	-107.0312576293946	480.4865722656251	-1210.556030273438	-68.60122680664064	471.4746398925782	-1083.51318359375	-160.3217926025391	283.6327514648438	-1100.560180664063	-220.8270568847657	251.4228057861329	-1158.752563476563	-192.6636199951172	240.1370849609376	-1124.503051757813	-235.9156341552735	186.5106658935547	-1074.54345703125	-346.9896850585938	107.2411804199219	-1094.287475585938	-416.3934936523439	90.5144729614258	-1034.545532226563	-203.5601196289063	56.1560401916504	-1051.19677734375	-212.6914367675782	37.55223083496094	-1097.640747070313	-314.0482177734376	130.802734375	-1014.875915527344	-73.09605407714845	741.8887329101564	-834.7636718750002	-8.858313560485842	763.1016235351564	-843.6789550781252	-0.6444294452667237	795.2770996093752	-853.3520507812502	52.27950668334962	712.8456420898439	-867.730895996094	104.2562713623047	677.3209228515626	-879.554382324219	111.7096786499024	696.7981567382814	-1007.513793945313	227.3531494140626	608.3978881835939	-924.9976196289065	230.7012481689454	505.3241271972657	-900.700622558594	261.9796447753907	528.6681518554689	-926.0655517578127	284.2409667968751	501.3890075683595	-973.8132934570315	349.2177734375001	315.0629577636719	-959.0552978515627	347.3349609375001	345.7194213867188	-1045.301635742188	321.3888549804688	244.2891387939454	-1017.726928710938	490.727752685547	398.5792236328126	-1025.150268554688	493.730194091797	393.7788391113282	-987.3853759765627	503.1079711914064	358.8814697265626	-944.5115356445315	-405.0962219238282	1530.310791015625	-1214.994506835938	
994	4.965	-277.7776794433594	1649.537841796875	-1136.551513671875	-415.2236328125001	1521.27294921875	-1068.821166992188	-441.0904846191407	1399.30810546875	-1141.824340820313	-483.5711669921876	1090.091064453125	-1021.510986328125	-278.7799072265626	1343.8642578125	-1125.602783203125	-293.6762390136719	1356.14599609375	-1300.794921875	-132.1170349121094	1302.71240234375	-1398.612182617188	-102.6710281372071	1334.07421875	-1372.5869140625	-62.93320846557619	1300.562133789063	-1405.691772460938	1.47430682182312	1311.973266601563	-1401.882934570313	8.248036384582521	1241.796997070313	-1370.802734375	298.7033996582032	1340.13525390625	-1293.397338867188	299.9860229492188	1353.222900390625	-1372.776245117188	395.4459533691407	1366.399658203125	-1300.166381835938	-288.6615600585938	1414.881958007813	-979.798767089844	-130.0877532958985	1403.80615234375	-866.8676757812502	-104.7112426757813	1421.977416992188	-904.5516357421877	-60.29136276245119	1403.06298828125	-867.0213012695315	4.820128917694093	1406.844970703125	-877.421569824219	9.546772956848146	1329.708129882813	-893.5979614257815	284.8781738281251	1413.533447265625	-984.659118652344	298.2566528320313	1439.646362304688	-911.7211914062502	383.6258544921876	1438.858154296875	-993.0832519531252	-311.2263793945313	900.7471313476565	-1148.627685546875	-290.4037780761719	926.3399047851565	-874.286315917969	-492.7026977539064	963.7021484375002	-989.9172363281252	-500.9882812500001	935.0351562500002	-1017.889587402344	-496.3512268066407	930.6015625000002	-963.4377441406252	-281.5235290527344	704.5345458984376	-1216.579467773438	-214.6669921875001	656.6384887695314	-1231.699340820313	-173.0228271484375	682.9766235351564	-1234.206909179688	-207.8046569824219	596.2927856445314	-1219.761108398438	-107.3411712646485	480.7775268554689	-1210.152099609375	-68.79116821289064	471.746551513672	-1083.156005859375	-160.4678955078125	284.2695007324219	-1100.14111328125	-220.930404663086	251.6248168945313	-1158.591796875	-192.8341827392579	240.2685699462891	-1124.268310546875	-235.6569366455079	187.0604095458985	-1074.268798828125	-346.9858398437501	107.2154388427735	-1094.182495117188	-416.4024047851564	90.52655029296876	-1034.496948242188	-203.6564636230469	56.66225814819337	-1051.06591796875	-212.7554626464844	37.65096282958985	-1097.5908203125	-314.1266479492188	130.7542572021485	-1014.779907226563	-73.00086212158205	742.8384399414064	-834.9121093750002	-8.864150047302248	763.8020629882814	-843.737487792969	-0.477226495742798	796.249450683594	-853.4010009765627	52.12782669067384	713.4055786132814	-868.0419921875002	104.3252792358399	678.1896362304689	-879.6583251953127	111.9719543457032	697.4135131835939	-1007.488464355469	227.4802551269532	609.3929443359376	-924.9514770507815	230.6815948486329	506.109100341797	-900.6938476562502	262.0986938476563	529.4507446289064	-926.0256958007815	284.3605651855469	502.2612915039064	-973.6592407226565	349.1378173828126	315.8291320800782	-959.018737792969	347.5185852050782	346.5773620605469	-1045.458984375	321.2955627441407	245.3088531494141	-1017.566589355469	490.8289794921876	399.020233154297	-1025.187133789063	493.5000000000001	394.6309204101564	-987.3294067382815	503.0715637207032	359.5297241210938	-944.3968505859377	-405.1009216308595	1531.209106445313	-1214.44189453125	
995	4.97	-277.6810607910157	1650.728637695313	-1136.261352539063	-415.4052124023439	1521.369995117188	-1068.29345703125	-441.2557067871095	1399.935424804688	-1141.73095703125	-483.4572753906251	1090.949096679688	-1021.616760253906	-278.3060607910157	1344.619140625	-1125.490966796875	-293.9227905273438	1357.341186523438	-1300.708251953125	-132.1481170654297	1303.75390625	-1398.888793945313	-102.8338165283203	1335.014404296875	-1372.646118164063	-63.04913711547853	1301.433227539063	-1405.70751953125	1.550260066986084	1312.778930664063	-1401.86376953125	8.3071346282959	1242.934326171875	-1370.5751953125	298.4500732421876	1341.380126953125	-1293.47265625	300.4802856445313	1353.88037109375	-1372.670776367188	395.7889709472657	1366.6513671875	-1300.356079101563	-288.6643676757813	1415.757568359375	-979.6570434570315	-130.0428466796875	1404.746337890625	-866.639831542969	-104.6273651123047	1422.86474609375	-904.4453125000002	-60.20649719238283	1403.924194335938	-866.888122558594	4.893458366394044	1407.7529296875	-877.2687988281252	9.637045860290529	1330.66943359375	-893.4695434570315	284.7561950683594	1414.429321289063	-984.632507324219	298.2342834472657	1440.737182617188	-911.5999755859377	383.4941711425782	1440.020751953125	-993.0002441406252	-310.8892517089844	901.922790527344	-1148.71044921875	-290.2506408691407	927.2052001953127	-874.3013305664065	-492.4486694335939	964.782897949219	-990.0874023437502	-500.7774658203126	936.0056152343752	-1018.090393066406	-496.2630615234376	931.4713134765627	-963.6531982421877	-281.3683471679688	705.3706665039064	-1216.388305664063	-214.6753997802735	657.0294189453126	-1231.484130859375	-173.0119171142578	683.2961425781251	-1233.92333984375	-207.9261627197266	596.7780151367189	-1219.427978515625	-107.2744827270508	480.9206848144532	-1209.703857421875	-69.17835998535158	472.1896972656251	-1082.760986328125	-160.642578125	284.5541992187501	-1099.8857421875	-221.0948333740235	251.9837799072266	-1158.396484375	-193.1225738525391	240.3566284179688	-1124.057495117188	-235.7591400146485	187.3036346435547	-1074.083251953125	-348.4761352539063	107.9514770507813	-1094.3916015625	-416.3801574707032	90.53428649902345	-1034.45849609375	-203.3830718994141	60.10503005981447	-1050.525512695313	-212.5574035644532	37.56466674804688	-1097.477416992188	-314.1745910644532	130.7011260986328	-1014.608947753906	-72.82814025878908	744.1051635742189	-834.8847656250002	-8.699110984802248	764.9600219726564	-843.7172851562502	-0.464890480041504	797.1262817382815	-853.4418945312502	52.22302627563478	714.3721313476564	-868.0983886718752	104.3277740478516	679.0193481445314	-879.6492919921877	111.6096420288086	698.3194580078126	-1007.391479492188	227.4644317626954	610.1218261718751	-924.8979492187502	230.6793823242188	506.8376464843751	-900.7626953125002	262.1991271972657	530.3728637695314	-925.8662109375002	284.3529052734376	503.1340332031251	-973.6287841796877	349.0076904296876	316.5102539062501	-959.0230712890627	347.5700683593751	347.2621459960938	-1045.4345703125	321.2937011718751	246.3788452148438	-1017.273742675781	490.7034301757814	399.9418945312501	-1025.179931640625	493.4238281250001	395.3161926269532	-987.2922363281252	502.9957580566407	360.1244812011719	-944.466735839844	-405.0140686035157	1532.06640625	-1214.130004882813	
